<?xml version="1.0" encoding="UTF-8"?>
<!-- Created with Inkscape (http://www.inkscape.org/) -->
<svg id="1" version="1.1" xmlns="http://www.w3.org/2000/svg">
 <rect x="3.008e-14" width="210" height="279.22" ry="13.296" fill="#0053d2" fill-opacity=".99608"/>
 <g transform="matrix(1.1787 0 0 1.2372 -16.206 -37.854)">
  <g transform="matrix(.26458 0 0 .2423 22.864 122.55)">
   <rect x="-2.5431e-6" y="58.208" width="180" height="222.25" ry="10.692" fill="#00aad4" stroke-width=".26593"/>
   <g fill="#fff">
    <rect x="21.167" y="89.958" width="137.58" height="10.583" ry="5.2917" stroke-width=".25052"/>
    <rect x="31.75" y="111.12" width="116.42" height="10.583" ry="5.2917" stroke-width=".23045"/>
    <rect x="21.167" y="132.29" width="137.58" height="10.583" ry="5.2917" stroke-width=".25052"/>
    <rect x="42.333" y="153.46" width="95.25" height="10.583" ry="5.2917" stroke-width=".20845"/>
    <rect x="15.875" y="174.62" width="148.17" height="10.583" ry="5.2917" stroke-width=".25998"/>
    <rect x="31.75" y="195.79" width="116.42" height="10.583" ry="5.2917" stroke-width=".23045"/>
    <rect x="10.583" y="216.96" width="158.75" height="10.583" ry="5.2917" stroke-width=".26911"/>
    <rect x="52.917" y="238.12" width="74.083" height="10.583" ry="5.2917" stroke-width=".18383"/>
    <rect x="63.5" y="259.29" width="52.917" height="10.583" ry="5.2917" stroke-width=".15537"/>
   </g>
  </g>
  <g transform="matrix(.33533 0 0 .2423 75.572 121.57)">
   <rect x="-2.5431e-6" y="58.208" width="180" height="222.25" ry="10.692" fill="#00aad4" stroke-width=".26593"/>
   <g fill="#fff">
    <rect x="21.167" y="89.958" width="137.58" height="10.583" ry="5.2917" stroke-width=".25052"/>
    <rect x="31.75" y="111.12" width="116.42" height="10.583" ry="5.2917" stroke-width=".23045"/>
    <rect x="21.167" y="132.29" width="137.58" height="10.583" ry="5.2917" stroke-width=".25052"/>
    <rect x="42.333" y="153.46" width="95.25" height="10.583" ry="5.2917" stroke-width=".20845"/>
    <rect x="15.875" y="174.62" width="148.17" height="10.583" ry="5.2917" stroke-width=".25998"/>
    <rect x="31.75" y="195.79" width="116.42" height="10.583" ry="5.2917" stroke-width=".23045"/>
    <rect x="10.583" y="216.96" width="158.75" height="10.583" ry="5.2917" stroke-width=".26911"/>
    <rect x="52.917" y="238.12" width="74.083" height="10.583" ry="5.2917" stroke-width=".18383"/>
    <rect x="63.5" y="259.29" width="52.917" height="10.583" ry="5.2917" stroke-width=".15537"/>
   </g>
  </g>
  <g transform="matrix(.2086 0 0 .2423 141.97 121.57)">
   <rect x="-2.5431e-6" y="58.208" width="180" height="222.25" ry="10.692" fill="#00aad4" stroke-width=".26593"/>
   <g fill="#fff">
    <rect x="21.167" y="89.958" width="137.58" height="10.583" ry="5.2917" stroke-width=".25052"/>
    <rect x="31.75" y="111.12" width="116.42" height="10.583" ry="5.2917" stroke-width=".23045"/>
    <rect x="21.167" y="132.29" width="137.58" height="10.583" ry="5.2917" stroke-width=".25052"/>
    <rect x="42.333" y="153.46" width="95.25" height="10.583" ry="5.2917" stroke-width=".20845"/>
    <rect x="15.875" y="174.62" width="148.17" height="10.583" ry="5.2917" stroke-width=".25998"/>
    <rect x="31.75" y="195.79" width="116.42" height="10.583" ry="5.2917" stroke-width=".23045"/>
    <rect x="10.583" y="216.96" width="158.75" height="10.583" ry="5.2917" stroke-width=".26911"/>
    <rect x="52.917" y="238.12" width="74.083" height="10.583" ry="5.2917" stroke-width=".18383"/>
    <rect x="63.5" y="259.29" width="52.917" height="10.583" ry="5.2917" stroke-width=".15537"/>
   </g>
  </g>
  <g transform="matrix(.33533 0 0 .2423 20.849 179.29)">
   <rect x="-2.5431e-6" y="58.208" width="180" height="222.25" ry="10.692" fill="#00aad4" stroke-width=".26593"/>
   <g fill="#fff">
    <rect x="21.167" y="89.958" width="137.58" height="10.583" ry="5.2917" stroke-width=".25052"/>
    <rect x="31.75" y="111.12" width="116.42" height="10.583" ry="5.2917" stroke-width=".23045"/>
    <rect x="21.167" y="132.29" width="137.58" height="10.583" ry="5.2917" stroke-width=".25052"/>
    <rect x="42.333" y="153.46" width="95.25" height="10.583" ry="5.2917" stroke-width=".20845"/>
    <rect x="15.875" y="174.62" width="148.17" height="10.583" ry="5.2917" stroke-width=".25998"/>
    <rect x="31.75" y="195.79" width="116.42" height="10.583" ry="5.2917" stroke-width=".23045"/>
    <rect x="10.583" y="216.96" width="158.75" height="10.583" ry="5.2917" stroke-width=".26911"/>
    <rect x="52.917" y="238.12" width="74.083" height="10.583" ry="5.2917" stroke-width=".18383"/>
    <rect x="63.5" y="259.29" width="52.917" height="10.583" ry="5.2917" stroke-width=".15537"/>
   </g>
  </g>
  <g transform="matrix(.26 0 0 .2423 85.725 179.29)">
   <rect x="-2.5431e-6" y="58.208" width="180" height="222.25" ry="10.692" fill="#00aad4" stroke-width=".26593"/>
   <g fill="#fff">
    <rect x="21.167" y="89.958" width="137.58" height="10.583" ry="5.2917" stroke-width=".25052"/>
    <rect x="31.75" y="111.12" width="116.42" height="10.583" ry="5.2917" stroke-width=".23045"/>
    <rect x="21.167" y="132.29" width="137.58" height="10.583" ry="5.2917" stroke-width=".25052"/>
    <rect x="42.333" y="153.46" width="95.25" height="10.583" ry="5.2917" stroke-width=".20845"/>
    <rect x="15.875" y="174.62" width="148.17" height="10.583" ry="5.2917" stroke-width=".25998"/>
    <rect x="31.75" y="195.79" width="116.42" height="10.583" ry="5.2917" stroke-width=".23045"/>
    <rect x="10.583" y="216.96" width="158.75" height="10.583" ry="5.2917" stroke-width=".26911"/>
    <rect x="52.917" y="238.12" width="74.083" height="10.583" ry="5.2917" stroke-width=".18383"/>
    <rect x="63.5" y="259.29" width="52.917" height="10.583" ry="5.2917" stroke-width=".15537"/>
   </g>
  </g>
  <g transform="matrix(.26458 0 0 .2423 137.27 179.29)">
   <rect x="-2.5431e-6" y="58.208" width="180" height="222.25" ry="10.692" fill="#00aad4" stroke-width=".26593"/>
   <g fill="#fff">
    <rect x="21.167" y="89.958" width="137.58" height="10.583" ry="5.2917" stroke-width=".25052"/>
    <rect x="31.75" y="111.12" width="116.42" height="10.583" ry="5.2917" stroke-width=".23045"/>
    <rect x="21.167" y="132.29" width="137.58" height="10.583" ry="5.2917" stroke-width=".25052"/>
    <rect x="42.333" y="153.46" width="95.25" height="10.583" ry="5.2917" stroke-width=".20845"/>
    <rect x="15.875" y="174.62" width="148.17" height="10.583" ry="5.2917" stroke-width=".25998"/>
    <rect x="31.75" y="195.79" width="116.42" height="10.583" ry="5.2917" stroke-width=".23045"/>
    <rect x="10.583" y="216.96" width="158.75" height="10.583" ry="5.2917" stroke-width=".26911"/>
    <rect x="52.917" y="238.12" width="74.083" height="10.583" ry="5.2917" stroke-width=".18383"/>
    <rect x="63.5" y="259.29" width="52.917" height="10.583" ry="5.2917" stroke-width=".15537"/>
   </g>
  </g>
 </g>
 <g transform="matrix(1.2029 0 0 1.3244 -18.697 -2.8971)">
  <rect x="26.458" y="10.583" width="153.46" height="84.667" ry="13.026" fill="#00aad4"/>
  <g fill="#fff">
   <rect x="37.042" y="21.167" width="132.29" height="10.583" ry="5.2917"/>
   <rect x="79.375" y="37.042" width="89.958" height="10.583" ry="5.2917"/>
   <rect x="79.375" y="52.917" width="89.958" height="10.583" ry="5.2917"/>
   <rect x="79.375" y="68.792" width="89.958" height="10.583" ry="5.2917"/>
  </g>
 </g>
</svg>
