<?xml version="1.0" encoding="UTF-8"?>
<!-- Created with Inkscape (http://www.inkscape.org/) -->
<svg id="1" version="1.1" xmlns="http://www.w3.org/2000/svg">
 <g transform="matrix(1.0384 0 0 1.0813 .27545 -41.869)">
  <rect x="-7.6294e-6" y="74.083" width="180" height="222.25" ry="10.692" fill="#00aad4" stroke-width=".26593"/>
  <g fill="#fff">
   <rect x="10.583" y="105.83" width="132.29" height="10.583" ry="5.2917" stroke-width=".24566"/>
   <rect x="10.583" y="127" width="116.42" height="10.583" ry="5.2917" stroke-width=".23045"/>
   <rect x="10.583" y="148.17" width="137.58" height="10.583" ry="5.2917" stroke-width=".25052"/>
   <rect x="10.583" y="169.33" width="95.25" height="10.583" ry="5.2917" stroke-width=".20845"/>
   <rect x="10.583" y="190.5" width="142.87" height="10.583" ry="5.2917" stroke-width=".2553"/>
   <rect x="10.583" y="211.67" width="116.42" height="10.583" ry="5.2917" stroke-width=".23045"/>
   <rect x="10.583" y="232.83" width="153.46" height="10.583" ry="5.2917" stroke-width=".26458"/>
   <rect x="10.583" y="254" width="68.792" height="10.583" ry="5.2917" stroke-width=".17715"/>
   <rect x="10.583" y="275.17" width="47.625" height="10.583" ry="5.2917" stroke-width=".1474"/>
  </g>
 </g>
 <path d="m91.992 268.83c-0.43894-9.7775-0.17356-19.777 1.1932-29.435 0.04545-0.32095 0.44233-7.2709 2.6251-7.9721 0.27825-0.0894 0.60419 0.27385 0.71593 0.61323 0.78414 2.3813 1.4292 4.8479 1.9091 7.3588 1.6418 8.5884 1.5374 10.763 1.6705 19.317 0.0318 2.0437 0 4.0882 0 6.1324 0 0.20441-0.11771 0.75074 0 0.61324 0.9582-1.1192 1.8988-2.302 2.6251-3.6794 2.6067-4.9441 4.2753-13.638 9.5458-15.331 0.76905-0.24702 0.45436 1.6455 0.4773 2.1464 0.0467 1.0203 0.0833 2.0498 0 3.0662-0.30813 3.7609-0.71593 1.7269-0.71593 5.5192 0 2.8519 0.82185 3.3369 2.3865-0.30661 0.86358-2.0111 1.2728-4.2927 1.9092-6.439 0.25068-0.84547 2.2452-7.9762 3.1024-9.8118 0.0578-0.12395 0.22109 0.16384 0.23864 0.30662 0.22471 1.8283 0.38146 3.6722 0.4773 5.5192 0.44057 8.4909 0.47041 6.7986-0.4773 14.104-0.0667 0.51407-0.3531 2.033-0.23864 1.5331 0.0678-0.29628 3.4434-16.83 3.8183-15.331 0.73231 2.9272 1.5158 5.8591 1.9091 8.892 0.39234 3.0245-0.4269 6.1818 0 9.1985 0.0318 0.22446 1.8699-0.30028 2.6251-1.2265 2.8501-3.4954 5.7626-13.26 10.262-13.491 4.4584-0.22913 5.1289 11.996 5.9662 15.331 1.4014 5.5817 3.341 0.31073 3.341-3.986" fill="none" stroke="#fff" stroke-width=".90027px"/>
 <g transform="matrix(1.0384 0 0 1.0813 -70.709 151.78)">
  <path d="m256.78 34.06-31.901 31.75 21.268 21.167 69.12-68.792-21.268-21.167z" fill="none"/>
  <path d="m224.88 65.81-15.951 37.042 37.218-15.875" fill="none"/>
  <path d="m294-2.9816 10.634-10.583 21.268 21.167-10.634 10.583" fill="#e9afaf" stroke="#e9afaf" stroke-linecap="round" stroke-width=".26521px"/>
  <path d="m214.25 92.268 5.3169 5.2917"/>
  <g stroke-linecap="round" stroke-width=".35782">
   <path d="m210 101.45c0.37501-1.0162 3.9468-9.378 3.9648-9.2818 9e-3 0.04727 1.2698 1.3727 2.8021 2.9455l2.7861 2.8595-3.6827 1.5506c-2.0255 0.85285-4.2289 1.7812-4.8963 2.0631-1.1356 0.47949-1.1982 0.47068-0.97395-0.13698z" stroke="#000"/>
   <path d="m217.13 94.597-2.9477-2.9983 10.875-25.28 10.153 10.101c5.5844 5.5553 10.153 10.194 10.153 10.309 0 0.16474-24.419 10.701-25.107 10.833-0.0987 0.0189-1.5058-1.3148-3.1271-2.9639z" fill="#fca" stroke="#fca"/>
   <path d="m235.59 76.082-10.309-10.264 68.687-68.359 20.797 20.708-34.251 34.09c-18.838 18.749-34.333 34.09-34.434 34.09-0.10027 0-4.8213-4.619-10.491-10.264z" fill="#ff9954" fill-opacity=".99608" stroke="#ff9953" stroke-opacity=".99608"/>
  </g>
 </g>
</svg>
